<svg width="30" height="26" viewBox="0 0 30 26" fill="none" xmlns="http://www.w3.org/2000/svg">
<path id="Vector" d="M13.1305 3.26644L13.131 3.26691L14.2853 4.44501L14.9996 5.17405L15.7139 4.44501L16.8681 3.2669L16.8693 3.26573C19.487 0.585169 23.6766 0.207891 26.4419 2.54168C29.6719 5.27252 29.8444 10.1821 26.9523 13.1441L13.1305 3.26644ZM13.1305 3.26644C10.5063 0.58455 6.322 0.20821 3.55712 2.5418L13.1305 3.26644ZM15.6148 24.7392L26.9519 13.1445L3.55693 2.54196C0.327152 5.2729 0.154911 10.1821 3.05251 13.1439L3.05271 13.1441L14.3902 24.7392C14.7304 25.0869 15.2746 25.0869 15.6148 24.7392Z" fill="#E0525B" stroke="#21221B" stroke-width="2"/>
</svg>
